<?xml version="1.0" encoding="UTF-8"?>
<svg version="1.1" xmlns="http://www.w3.org/2000/svg" width="1000" height="1000">
<path d="M0 0 C1.9247897 -0.00827923 1.9247897 -0.00827923 3.88846403 -0.01672572 C5.31840827 -0.01274974 6.74835202 -0.0085908 8.17829525 -0.00426924 C9.69897415 -0.00696113 11.2196517 -0.01052811 12.7403267 -0.01489371 C16.9439634 -0.02438906 21.14751388 -0.02133904 25.35115493 -0.01633817 C29.91498964 -0.01308257 34.47880548 -0.02134484 39.04263425 -0.02815652 C47.04962657 -0.0384844 55.05659471 -0.04129549 63.06359303 -0.03924429 C74.97011071 -0.03620154 86.8766015 -0.04450212 98.78311395 -0.05499355 C121.28231559 -0.07436405 143.78150813 -0.07996289 166.28071712 -0.08110766 C183.65090229 -0.0820257 201.02108389 -0.0861369 218.3912679 -0.09250891 C223.38586727 -0.09430392 228.38046666 -0.09608354 233.37506604 -0.09785867 C234.61663048 -0.09830076 235.85819493 -0.09874286 237.13738253 -0.09919835 C272.07353055 -0.11151156 307.00967732 -0.11939899 341.9458276 -0.1185118 C343.26375786 -0.11848064 344.58168812 -0.11844948 345.93955565 -0.11841738 C351.95017266 -0.11826782 357.96078968 -0.11809427 363.97140669 -0.11790961 C366.65176245 -0.11782736 369.33211822 -0.11774707 372.01247399 -0.11766698 C373.3540411 -0.11762619 374.69560822 -0.11758415 376.03717533 -0.11754086 C418.46528793 -0.11618017 460.89336714 -0.13081765 503.32147038 -0.15862143 C550.20172386 -0.18932596 597.08195961 -0.20655545 643.96222425 -0.20469499 C648.95745234 -0.20454572 653.95268043 -0.20444831 658.94790852 -0.20438635 C660.17792191 -0.20436304 661.4079353 -0.20433974 662.67522182 -0.20431572 C682.50159086 -0.20425408 702.3279318 -0.21704617 722.15429248 -0.23425088 C742.06672858 -0.25117337 761.97912339 -0.2532078 781.89156269 -0.24003224 C793.73248151 -0.23262056 805.57327525 -0.23636698 817.41418092 -0.25591692 C825.31452231 -0.26786254 833.21477252 -0.2653866 841.11510962 -0.25097592 C845.62250158 -0.24316687 850.12965043 -0.2417924 854.63702582 -0.25789063 C858.7339941 -0.27239562 862.83051575 -0.26863884 866.92746379 -0.25004289 C868.40375998 -0.24658764 869.88009068 -0.24989805 871.35635179 -0.26064531 C873.35623078 -0.27423449 875.35623886 -0.26084649 877.35610962 -0.24609566 C878.46486082 -0.2462721 879.57361202 -0.24644854 880.71596175 -0.24663033 C885.21947048 0.48215676 888.4516677 2.40528121 891.16259149 6.11090339 C892.0212213 8.98111546 892.05484803 11.5284725 892.05640364 14.52654004 C892.06192312 15.82693418 892.06744261 17.12732832 892.07312936 18.46712834 C892.06915337 19.91651918 892.06499442 21.36590954 892.06067288 22.81529939 C892.06336473 24.35644339 892.06693168 25.89758608 892.07129735 27.43872625 C892.08079324 31.69918479 892.07774251 35.95955827 892.0727418 40.2200211 C892.06948634 44.84545195 892.07774836 49.47086417 892.08456016 54.09628916 C892.09488826 62.21142998 892.09769909 70.32654692 892.09564793 78.44169366 C892.09260523 90.50902626 892.10090563 102.57633232 892.11139718 114.64365977 C892.1307679 137.4467189 892.13636654 160.24976906 892.1375113 183.05283545 C892.13842933 200.65757442 892.14254049 218.26230985 892.14891255 235.86704767 C892.15070755 240.92905084 892.15248718 245.99105402 892.1542623 251.05305719 C892.15492545 252.94053567 892.15492545 252.94053567 892.15560199 254.86614502 C892.16791523 290.27384306 892.1758144 325.68154024 892.17491543 361.08924043 C892.17488388 362.43845718 892.1748524 363.78767393 892.17482102 365.13689067 C892.17467425 371.22866414 892.17449791 377.32043762 892.17431325 383.41221109 C892.174231 386.12875867 892.17415071 388.84530625 892.17407062 391.56185382 C892.17402983 392.92153562 892.17398779 394.28121741 892.1739445 395.6408992 C892.1725838 438.64198451 892.18722132 481.64303687 892.21502507 524.64411294 C892.2220269 535.47903246 892.22896573 546.313952 892.23555386 557.14887178 C892.23595961 557.81598872 892.23636536 558.48310566 892.2367834 559.17043826 C892.25854945 595.17476428 892.26250845 631.17909243 892.26109862 667.18342447 C892.26094935 672.24605636 892.26085195 677.30868824 892.26078999 682.37132013 C892.26075503 684.24123692 892.26075503 684.24123692 892.26071936 686.14892981 C892.26065772 706.24309063 892.27344997 726.33722373 892.29065452 746.4313763 C892.30757677 766.61266201 892.30961163 786.793907 892.29643588 806.97519587 C892.28902404 818.97608259 892.29277109 830.97684591 892.31232056 842.97771966 C892.32426577 850.98469114 892.3217907 858.99157266 892.30737956 866.99853992 C892.29957016 871.56683322 892.29819703 876.13488665 892.31429426 880.70316361 C892.32879803 884.85539153 892.32504391 889.00717874 892.30644653 893.15938669 C892.30299095 894.65568744 892.30630273 896.15202224 892.31704894 897.64828839 C892.33063563 899.67507284 892.31725159 901.70198465 892.30249929 903.72876096 C892.30267574 904.8524863 892.30285218 905.97621164 892.30303397 907.13398927 C891.57830855 911.65818944 889.66707848 914.89311037 885.94069123 917.61218718 C883.09587264 918.46513536 880.57905726 918.50443628 877.60680795 918.50599933 C876.32361482 918.51151881 875.04042168 918.5170383 873.71834391 918.52272505 C872.28839967 918.51874907 870.85845593 918.51459013 869.42851269 918.51026857 C867.9078338 918.51296046 866.38715625 918.51652743 864.86648124 918.52089304 C860.66284455 918.53038839 856.45929407 918.52733837 852.25565302 918.52233749 C847.69181831 918.5190819 843.12800247 918.52734417 838.5641737 918.53415585 C830.55718137 918.54448373 822.55021324 918.54729482 814.54321492 918.54524362 C802.63669724 918.54220087 790.73020645 918.55050144 778.82369399 918.56099287 C756.32449236 918.58036338 733.82529982 918.58596222 711.32609083 918.58710699 C693.95590565 918.58802503 676.58572406 918.59213623 659.21554005 918.59850824 C654.22094067 918.60030324 649.22634129 918.60208287 644.23174191 918.60385799 C642.99017746 918.60430009 641.74861302 918.60474219 640.46942542 918.60519768 C605.5332774 918.61751089 570.59713063 918.62539831 535.66098034 918.62451112 C534.34305009 918.62447997 533.02511983 918.62444881 531.66725229 918.62441671 C525.65663528 918.62426715 519.64601827 918.6240936 513.63540126 918.62390894 C510.95504549 918.62382669 508.27468973 918.6237464 505.59433396 918.62366631 C504.25276684 918.62362552 502.91119973 918.62358348 501.56963261 918.62354019 C459.14152002 918.6221795 416.71344081 918.63681698 374.28533757 918.66462076 C327.40508408 918.69532529 280.52484834 918.71255478 233.6445837 918.71069431 C228.64935561 918.71054504 223.65412752 918.71044764 218.65889943 918.71038568 C217.42888604 918.71036237 216.19887265 918.71033906 214.93158613 918.71031505 C195.10521709 918.71025341 175.27887614 918.7230455 155.45251547 918.74025021 C135.54007937 918.7571727 115.62768455 918.75920713 95.71524526 918.74603157 C83.87432644 918.73861989 72.0335327 918.74236631 60.19262703 918.76191625 C52.29228564 918.77386187 44.39203542 918.77138592 36.49169832 918.75697525 C31.98430637 918.7491662 27.47715751 918.74779173 22.96978213 918.76388995 C18.87281385 918.77839495 14.7762922 918.77463816 10.67934415 918.75604222 C9.20304797 918.75258696 7.72671727 918.75589737 6.25045616 918.76664463 C4.25057717 918.78023382 2.25056909 918.76684581 0.25069833 918.75209498 C-0.85805287 918.75227143 -1.96680408 918.75244787 -3.1091538 918.75262966 C-7.61266253 918.02384256 -10.84485975 916.10071811 -13.55578355 912.39509594 C-14.41441336 909.52488387 -14.44804008 906.97752683 -14.44959569 903.97945929 C-14.45511518 902.67906515 -14.46063466 901.37867101 -14.46632141 900.03887099 C-14.46234542 898.58948014 -14.45818648 897.14008979 -14.45386493 895.69069993 C-14.45655678 894.14955593 -14.46012373 892.60841325 -14.4644894 891.06727308 C-14.47398529 886.80681454 -14.47093456 882.54644106 -14.46593386 878.28597822 C-14.4626784 873.66054738 -14.47094041 869.03513515 -14.47775221 864.40971017 C-14.48808031 856.29456935 -14.49089114 848.1794524 -14.48883998 840.06430566 C-14.48579729 827.99697307 -14.49409768 815.929667 -14.50458924 803.86233956 C-14.52395995 781.05928043 -14.52955859 758.25623026 -14.53070335 735.45316388 C-14.53162138 717.84842491 -14.53573254 700.24368948 -14.5421046 682.63895166 C-14.5438996 677.57694849 -14.54567923 672.51494531 -14.54745436 667.45294213 C-14.54789645 666.19462315 -14.54833855 664.93630417 -14.54879404 663.63985431 C-14.56110729 628.23215627 -14.56900645 592.82445908 -14.56810749 557.41675889 C-14.56807593 556.06754215 -14.56804446 554.7183254 -14.56801307 553.36910865 C-14.5678663 547.27733518 -14.56768996 541.18556171 -14.5675053 535.09378824 C-14.56742305 532.37724066 -14.56734276 529.66069308 -14.56726267 526.9441455 C-14.56722188 525.58446371 -14.56717984 524.22478192 -14.56713655 522.86510012 C-14.56577586 479.86401482 -14.58041337 436.86296245 -14.60821712 393.86188638 C-14.61521896 383.02696687 -14.62215779 372.19204732 -14.62874591 361.35712755 C-14.62915166 360.69001061 -14.62955741 360.02289367 -14.62997545 359.33556106 C-14.65174151 323.33123504 -14.6557005 287.3269069 -14.65429068 251.32257485 C-14.65414141 246.25994297 -14.654044 241.19731109 -14.65398204 236.1346792 C-14.65395873 234.888068 -14.65393543 233.64145681 -14.65391141 232.35706952 C-14.65384977 212.2629087 -14.66664202 192.1687756 -14.68384657 172.07462303 C-14.70076882 151.89333732 -14.70280368 131.71209233 -14.68962793 111.53080346 C-14.68221609 99.52991673 -14.68596315 87.52915342 -14.70551261 75.52827967 C-14.71745782 67.52130818 -14.71498275 59.51442666 -14.70057161 51.50745941 C-14.69276221 46.93916611 -14.69138908 42.37111267 -14.70748632 37.80283572 C-14.72199009 33.65060779 -14.71823596 29.49882059 -14.69963858 25.34661264 C-14.696183 23.85031189 -14.69949478 22.35397709 -14.710241 20.85771094 C-14.72382769 18.83092648 -14.71044364 16.80401467 -14.69569135 14.77723837 C-14.69586779 13.65351303 -14.69604423 12.52978768 -14.69622602 11.37201006 C-13.9715006 6.84780989 -12.06027053 3.61288896 -8.33388328 0.89381214 C-5.48906469 0.04086397 -2.97224931 0.00156304 0 0 Z " fill="#FEFEFE" transform="translate(59.19659602642059,37.747000336647034)"/>
<path d="M0 0 C1.9375 0.3125 1.9375 0.3125 4 1 C4.495 2.485 4.495 2.485 5 4 C5.99 4.33 6.98 4.66 8 5 C12.34643311 8.96292431 16.129454 13.47985026 20.01171875 17.890625 C21.82350446 20.05513264 21.82350446 20.05513264 24 21 C24 21.66 24 22.32 24 23 C24.56164856 23.23698608 25.12329712 23.47397217 25.70196533 23.71813965 C28.53144349 25.29644302 30.47414061 27.21977109 32.76855469 29.50976562 C33.22755661 29.96526291 33.68655853 30.42076019 34.1594696 30.89006042 C35.66866055 32.3904793 37.17045412 33.89805885 38.671875 35.40625 C39.71961725 36.45264477 40.76765622 37.49874251 41.815979 38.54455566 C44.0080285 40.73366043 46.1964288 42.92633269 48.38232422 45.12158203 C51.18905754 47.93973769 54.00471138 50.74878255 56.82313156 53.55524445 C58.9868103 55.71171108 61.14572128 57.87290001 63.30319977 60.03556824 C64.33998925 61.07369455 65.37827381 62.11032988 66.41805267 63.14546204 C67.86653819 64.58889012 69.30796724 66.03938911 70.74902344 67.49023438 C71.98335114 68.72694885 71.98335114 68.72694885 73.24261475 69.98864746 C75 72 75 72 75 74 C75.5775 74.2475 76.155 74.495 76.75 74.75 C79.32939979 76.18299988 81.06121592 77.78424676 83 80 C83 80.66 83 81.32 83 82 C83.87724731 82.38937744 83.87724731 82.38937744 84.7722168 82.78662109 C87.15870354 84.08643908 88.73302211 85.48956722 90.64453125 87.4140625 C91.32193359 88.09339844 91.99933594 88.77273438 92.69726562 89.47265625 C93.39529297 90.18292969 94.09332031 90.89320313 94.8125 91.625 C95.84213867 92.65560547 95.84213867 92.65560547 96.89257812 93.70703125 C100.90808373 97.75672753 104.73757344 101.90924197 108.42089844 106.26367188 C109.98921867 107.9881452 111.61872123 109.42124663 113.4375 110.875 C114.283125 111.57625 115.12875 112.2775 116 113 C116 113.66 116 114.32 116 115 C116.99 115.33 117.98 115.66 119 116 C119 116.66 119 117.32 119 118 C119.66 118 120.32 118 121 118 C122.515625 119.57421875 122.515625 119.57421875 124.25 121.6875 C126.41897174 124.24634889 128.40724173 126.33936811 131 128.5 C133.37191013 130.47659177 135.13244653 132.23172566 137.09765625 134.55859375 C141.32745331 139.44801261 145.85680752 144.00363766 150.4375 148.5625 C151.24509766 149.37396484 152.05269531 150.18542969 152.88476562 151.02148438 C157.23289109 155.36260238 161.63464636 159.51691622 166.39086914 163.40991211 C168.14292028 165.14122892 168.93917212 166.79853725 170 169 C171.31845569 169.69562693 172.65335148 170.36065659 174 171 C175.74609375 172.8046875 175.74609375 172.8046875 177.4375 174.875 C180.0762797 178.00432208 182.77362574 180.47122017 186 183 C187.33333333 184.66666667 188.66666667 186.33333333 190 188 C190.9075 188.721875 191.815 189.44375 192.75 190.1875 C193.4925 190.785625 194.235 191.38375 195 192 C195 192.66 195 193.32 195 194 C195.556875 194.22429687 196.11375 194.44859375 196.6875 194.6796875 C206.26125258 200.14578272 211.97625626 210.79793778 215 221 C216.9287874 233.61861617 216.21351641 244.59493117 208.45703125 255.2421875 C204.11431178 261.05862029 199.27299065 266.20786915 194.125 271.3125 C193.29097656 272.16650391 192.45695312 273.02050781 191.59765625 273.90039062 C181.89985385 283.59069859 171.53475647 289.89319805 157.5625 290.375 C138.51207528 289.67043237 127.66100032 278.12482777 115.01953125 265.3828125 C113.71296993 264.07573145 112.40588751 262.76917111 111.09831238 261.46310425 C108.38166959 258.74637243 105.67020711 256.02461084 102.96264648 253.29882812 C99.486425 249.79972867 95.99902803 246.31202031 92.50800037 242.82769966 C89.81827508 240.14130508 87.13354025 237.44996961 84.45041466 234.75698471 C83.16508264 233.46779925 81.87839424 232.17996467 80.59034157 230.89349747 C78.80239102 229.10591574 77.02104697 227.31201121 75.24145508 225.51611328 C74.707043 224.98417862 74.17263092 224.45224396 73.62202454 223.90419006 C70 220.22876427 70 220.22876427 70 218 C69.34 218 68.68 218 68 218 C66.86384099 216.93002501 65.73940051 215.84616847 64.65869141 214.72021484 C62.59644022 212.58147156 60.47600917 210.50673264 58.35546875 208.42578125 C56.63268678 206.72148124 54.91003392 205.01705072 53.1875 203.3125 C52.30384766 202.44560547 51.42019531 201.57871094 50.50976562 200.68554688 C49.25776367 199.44321289 49.25776367 199.44321289 47.98046875 198.17578125 C46.83421021 197.04523315 46.83421021 197.04523315 45.66479492 195.8918457 C44 194 44 194 44 192 C43.1646875 191.6596875 43.1646875 191.6596875 42.3125 191.3125 C39.3530491 189.63281165 37.33873216 187.45866715 35 185 C34.401875 184.443125 33.80375 183.88625 33.1875 183.3125 C32 182 32 182 32 180 C31.14728516 179.63841797 31.14728516 179.63841797 30.27734375 179.26953125 C27.55211092 177.75031912 25.73309661 175.92581019 23.5625 173.6875 C22.77230469 172.87925781 21.98210937 172.07101562 21.16796875 171.23828125 C20.45253906 170.49964844 19.73710938 169.76101563 19 169 C18.13375 168.13375 17.2675 167.2675 16.375 166.375 C15.59125 165.59125 14.8075 164.8075 14 164 C13.45730469 163.46890625 12.91460938 162.9378125 12.35546875 162.390625 C9.44652306 159.52604232 6.66174967 156.65017759 4.0625 153.5 C1.26982393 150.16680599 -1.8494866 147.37952611 -5.16796875 144.578125 C-6.87287684 143.10950481 -8.50596989 141.68367479 -10 140 C-10 139.34 -10 138.68 -10 138 C-10.99 137.67 -11.98 137.34 -13 137 C-13 136.34 -13 135.68 -13 135 C-13.99 134.67 -14.98 134.34 -16 134 C-17.34082031 132.64013672 -17.34082031 132.64013672 -18.828125 130.8046875 C-23.85999046 124.87597536 -29.39469083 119.45587199 -34.89892578 113.97070312 C-36.76322301 112.11181536 -38.62205266 110.24757797 -40.48046875 108.3828125 C-41.66894991 107.19499132 -42.8577408 106.00747992 -44.046875 104.8203125 C-44.6000238 104.26513947 -45.15317261 103.70996643 -45.7230835 103.13796997 C-48.05812247 100.81714744 -50.25079049 98.83280634 -53 97 C-53 96.34 -53 95.68 -53 95 C-53.59941406 94.73832031 -54.19882812 94.47664062 -54.81640625 94.20703125 C-57.13061764 92.92779812 -58.29659445 91.73749558 -59.9375 89.6875 C-62.47375571 86.60958164 -65.14046519 83.78621341 -68 81 C-69.66666667 79.33333333 -71.33333333 77.66666667 -73 76 C-71.70169319 73.14018719 -70.33289904 71.08549665 -68.10874939 68.87496948 C-67.51845444 68.28337036 -66.92815948 67.69177124 -66.31997681 67.08224487 C-65.35129166 66.12670212 -65.35129166 66.12670212 -64.36303711 65.15185547 C-63.68160141 64.47173401 -63.00016571 63.79161255 -62.29808044 63.09088135 C-60.04572896 60.84501851 -57.78649225 58.60621116 -55.52734375 56.3671875 C-53.96267359 54.80878722 -52.39851713 53.24987103 -50.83485413 51.69046021 C-46.71799687 47.58690788 -42.59561042 43.48895899 -38.47161865 39.39257812 C-31.8654513 32.8295301 -25.26599858 26.25974689 -18.66974068 19.68674088 C-16.3603878 17.38764035 -14.04766793 15.09196636 -11.73460388 12.79660034 C-10.32547811 11.39429986 -8.91646032 9.99189086 -7.50756836 8.58935547 C-6.53584686 7.62774002 -6.53584686 7.62774002 -5.54449463 6.646698 C-2.3873746 3.61745792 -2.3873746 3.61745792 0 0 Z " fill="#FEFEFE" transform="translate(629,433)"/>
<path d="M0 0 C2.38738589 1.97285196 4.62889327 4.07931506 6.86701965 6.21885681 C7.51265832 6.82913567 8.15829698 7.43941454 8.82350045 8.0681867 C16.63955427 15.49486699 24.25978966 23.11956298 31.87768555 30.74829102 C33.50864968 32.37789633 35.13982564 34.00728967 36.77119446 35.63648987 C41.15292226 40.01370414 45.53153609 44.39402044 49.90941215 48.77508664 C54.50774793 53.3759734 59.10854478 57.97439816 63.7089386 62.57322693 C71.91136794 70.77372873 80.11129004 78.97673237 88.31020252 87.18075018 C95.73753091 94.61255999 103.16749809 102.04172322 110.59936523 109.46899414 C119.2595999 118.12387531 127.9181501 126.78043541 136.57423049 135.43947166 C141.14613157 140.01293033 145.7187024 144.58571388 150.29303551 149.15674019 C154.58406213 153.44488035 158.87263926 157.73545522 163.15933037 162.02792931 C164.73225954 163.60218107 166.30604095 165.17558185 167.88073349 166.74806976 C170.02878169 168.89338734 172.17372908 171.04175827 174.31791687 173.19093323 C175.25393825 174.12360853 175.25393825 174.12360853 176.20886916 175.07512575 C179.36248702 178.24299742 182.25450186 181.46268569 185 185 C186.64246747 186.6905195 188.31400402 188.35288947 190 190 C191.32705552 191.32021728 192.6528004 192.64175256 193.97764587 193.96418762 C195.56312711 195.54360309 197.1486231 197.12300374 198.73413086 198.70239258 C207.59495427 207.53045537 216.45065678 216.36363549 225.30341244 225.19978809 C230.65618759 230.54225126 236.0108335 235.88281423 241.36987305 241.21899414 C246.0589795 245.88810966 250.74450916 250.56078061 255.42585474 255.23767775 C257.89827112 257.7074995 260.37238374 260.17556363 262.85081291 262.6393528 C265.61821687 265.39053776 268.37763036 268.14965416 271.13647461 270.90942383 C271.9486142 271.71437286 272.76075378 272.5193219 273.59750366 273.34866333 C286.81699256 286.61608169 293.22883097 299.54366101 293.375 318.5625 C293.19290853 337.43498031 285.99707618 349.7914528 273 363 C272.236875 363.78745605 271.47375 364.57491211 270.6875 365.38623047 C268.09422984 368.06004007 265.48698402 370.71947489 262.875 373.375 C262.0401709 374.23150146 261.2053418 375.08800293 260.34521484 375.97045898 C254.00259647 382.34494667 247.41008218 388.06742699 238.875 391.25 C238.10929687 391.54390625 237.34359375 391.8378125 236.5546875 392.140625 C235.71164062 392.42421875 234.86859375 392.7078125 234 393 C232.95070313 393.3609375 231.90140625 393.721875 230.8203125 394.09375 C226.13082284 395.20618518 221.79893318 395.29297552 217 395.25 C216.13632812 395.25773437 215.27265625 395.26546875 214.3828125 395.2734375 C206.52592456 395.24955638 200.27336561 393.36300989 193.1875 389.9375 C192.06730469 389.41027344 190.94710938 388.88304687 189.79296875 388.33984375 C180.03806589 382.87064113 172.25141588 373.40068437 164.39776611 365.54493713 C163.25929444 364.40977301 162.12061312 363.27481911 160.98174262 362.14005512 C157.87825567 359.04649307 154.77783786 355.94987155 151.67797589 352.8526777 C148.32459356 349.50322638 144.96839275 346.156601 141.61262512 342.80953979 C133.52729651 334.74388595 125.44673529 326.67346416 117.36678278 318.60242525 C113.55642543 314.79646118 109.74558322 310.99098265 105.93480682 307.18543816 C93.26213804 294.52976438 80.59071862 281.87284166 67.92291641 269.21229649 C64.64279361 265.93408334 61.36266545 262.65587556 58.08251953 259.37768555 C57.26732935 258.5629791 56.45213916 257.74827266 55.61224625 256.90887814 C42.3900421 243.69498444 29.15933485 230.48963895 15.92507449 217.28782118 C2.3231898 203.71900804 -11.27115277 190.14267572 -24.85810971 176.5589146 C-32.48122362 168.9379645 -40.10758827 161.32033113 -47.74239349 153.711092 C-54.23939354 147.23579926 -60.72952362 140.75371863 -67.21081629 134.26270241 C-70.51588166 130.95309401 -73.82407675 127.64678467 -77.14111137 124.34916878 C-80.18070421 121.32721728 -83.21082219 118.29608371 -86.23383442 115.25754844 C-87.32570337 114.16330509 -88.4209262 113.07239527 -89.51991186 111.98529965 C-101.00410719 100.61764292 -108.95545464 88.79985779 -109.37109375 72.17602539 C-109.39656983 56.7614058 -106.47345777 45.51199805 -95.609375 33.9921875 C-95.08741547 33.43318253 -94.56545593 32.87417755 -94.02767944 32.29823303 C-88.56033549 26.47438493 -82.96444995 20.77832645 -77.31591797 15.13061523 C-75.59964799 13.41211504 -73.89160825 11.68568559 -72.18359375 9.95898438 C-71.0734046 8.84586731 -69.96274515 7.73321905 -68.8515625 6.62109375 C-68.3514566 6.11380234 -67.85135071 5.60651093 -67.33609009 5.08384705 C-49.70377953 -12.43576458 -20.12225468 -14.13267851 0 0 Z M58.41671658 88.50507355 C57.86367383 89.18470909 57.31063108 89.86434464 56.74082947 90.5645752 C53.38312165 94.56841886 49.85105273 98.28497009 46.14672852 101.96679688 C45.17959175 102.93415268 45.17959175 102.93415268 44.19291687 103.92105103 C42.09061182 106.02266713 39.98480223 108.1207327 37.87890625 110.21875 C36.40895544 111.686833 34.93922728 113.15513897 33.4697113 114.62365723 C29.62344055 118.46613136 25.77417494 122.3055914 21.92425537 126.14440918 C17.9873866 130.07100211 14.05338869 134.00046906 10.11914062 137.9296875 C2.41555078 145.62259043 -5.29120935 153.31230887 -13 161 C-9.83485017 167.50478977 -5.08222531 172.09034683 0.4609375 176.64453125 C2.26977195 178.23759104 3.5825559 180.06033965 5 182 C5.66 182 6.32 182 7 182 C7.33 182.99 7.66 183.98 8 185 C9.39294131 186.41687768 9.39294131 186.41687768 11.1953125 187.828125 C17.12402464 192.85999046 22.54412801 198.39469083 28.02929688 203.89892578 C29.88818464 205.76322301 31.75242203 207.62205266 33.6171875 209.48046875 C34.80500868 210.66894991 35.99252008 211.8577408 37.1796875 213.046875 C37.73486053 213.6000238 38.29003357 214.15317261 38.86203003 214.7230835 C41.18285256 217.05812247 43.16719366 219.25079049 45 222 C45.66 222 46.32 222 47 222 C47.33 222.99 47.66 223.98 48 225 C48.66 225 49.32 225 50 225 C50.39638672 225.88558594 50.39638672 225.88558594 50.80078125 226.7890625 C52.04376865 229.080694 53.32690143 230.56123572 55.1875 232.375 C56.12142578 233.28572266 56.12142578 233.28572266 57.07421875 234.21484375 C58.83997635 235.85166165 60.64636298 237.40186843 62.5 238.9375 C65.84037935 241.73113565 68.56968714 244.88207597 71.3828125 248.1953125 C73.04072435 250.14508617 73.04072435 250.14508617 75.5 252 C78.49168142 254.39334514 80.80426374 257.12656559 83.29296875 260.02734375 C85.42960581 262.49645522 87.58943144 264.7960516 90 267 C90.66 267 91.32 267 92 267 C92.226875 267.556875 92.45375 268.11375 92.6875 268.6875 C94.36718835 271.6469509 96.54133285 273.66126784 99 276 C99.556875 276.598125 100.11375 277.19625 100.6875 277.8125 C101.95218271 279.22363777 101.95218271 279.22363777 104 279 C104.24242432 279.568396 104.48484863 280.13679199 104.73461914 280.72241211 C106.24205684 283.43568363 108.03633044 285.26184048 110.24609375 287.44140625 C111.08333984 288.27220703 111.92058594 289.10300781 112.78320312 289.95898438 C113.65912109 290.81814453 114.53503906 291.67730469 115.4375 292.5625 C116.30955078 293.42552734 117.18160156 294.28855469 118.08007812 295.17773438 C119.70013681 296.78035969 121.32223918 298.38092357 122.94702148 299.97875977 C124.20549713 301.21777985 125.44470947 302.47724116 126.64868164 303.76928711 C127.94181603 305.224448 127.94181603 305.224448 130 305 C130.21655746 305.54089264 130.43311493 306.08178528 130.65623474 306.6390686 C132.46754174 309.82144852 134.92560791 312.21229267 137.50024414 314.77490234 C138.06154022 315.34130936 138.6228363 315.90771637 139.20114136 316.49128723 C141.0573333 318.36137114 142.92085537 320.22393971 144.78515625 322.0859375 C146.08375167 323.38842208 147.38212379 324.69112932 148.68028259 325.99404907 C151.40478986 328.72601921 154.13314172 331.45408008 156.86401367 334.1796875 C160.34684096 337.65674181 163.81821943 341.14497693 167.28650761 344.63652611 C169.96743804 347.33226517 172.65534595 350.02096344 175.34524345 352.70775223 C176.62687865 353.98989778 177.90617923 355.27438177 179.18300056 356.56132126 C190.66822068 368.12629862 200.35466678 376.66665891 217.4375 377.4375 C233.83485969 376.89328749 244.5923644 367.93257003 255.625 356.8125 C256.52734375 355.93013672 257.4296875 355.04777344 258.359375 354.13867188 C268.03146562 344.45953163 275.76204002 334.23227928 276.08984375 320.13671875 C275.73534401 304.46409873 270.39740778 295.17522913 260 284 C259.43410156 283.38125 258.86820313 282.7625 258.28515625 282.125 C257.03385439 280.7804445 257.03385439 280.7804445 255 281 C255 280.34 255 279.68 255 279 C253.38200498 277.36324492 253.38200498 277.36324492 251.3125 275.6875 C246.00048463 271.16106437 241.4675725 266.36108699 237 261 C234.43802877 258.18643108 234.43802877 258.18643108 232 256 C231.34 256 230.68 256 230 256 C229.773125 255.443125 229.54625 254.88625 229.3125 254.3125 C227.22851596 250.6407186 224.22101118 248.0742909 221.08203125 245.3125 C215.07187485 240.01611432 209.35835335 234.46965977 203.6875 228.8125 C202.52214722 227.65391479 202.52214722 227.65391479 201.33325195 226.47192383 C198.17151994 223.30199106 195.0516216 220.15713348 192.22265625 216.68359375 C190.20145707 214.24323552 188.17864421 212.2707803 185.75 210.25 C182.10322581 207.20645161 182.10322581 207.20645161 181 205 C180.34 205 179.68 205 179 205 C178.67 204.01 178.34 203.02 178 202 C177.34 202 176.68 202 176 202 C175.76667969 201.42765625 175.53335938 200.8553125 175.29296875 200.265625 C173.69219161 197.46063786 171.76933349 195.84188273 169.3125 193.75 C166.20775611 191.02615193 163.29184913 188.34162527 160.625 185.1875 C157.471779 181.45959124 154.12010383 177.96870974 150.6875 174.5 C150.15914551 173.95883545 149.63079102 173.4176709 149.08642578 172.86010742 C147.76328354 171.5333337 146.3855297 170.26148379 145 169 C144.34 169 143.68 169 143 169 C142.7525 168.4225 142.505 167.845 142.25 167.25 C140.81700012 164.67060021 139.21575324 162.93878408 137 161 C136.34 161 135.68 161 135 161 C134.76301392 160.43835144 134.52602783 159.87670288 134.28186035 159.29803467 C132.70355698 156.46855651 130.78022891 154.52585939 128.49023438 152.23144531 C128.03473709 151.77244339 127.57923981 151.31344147 127.10993958 150.8405304 C125.6095207 149.33133945 124.10194115 147.82954588 122.59375 146.328125 C121.54735523 145.28038275 120.50125749 144.23234378 119.45544434 143.184021 C117.26633957 140.9919715 115.07366731 138.8035712 112.87841797 136.61767578 C110.06026231 133.81094246 107.25121745 130.99528862 104.44475555 128.17686844 C102.28828892 126.0131897 100.12709999 123.85427872 97.96443176 121.69680023 C96.92630545 120.66001075 95.88967012 119.62172619 94.85453796 118.58194733 C93.41110988 117.13346181 91.96061089 115.69203276 90.50976562 114.25097656 C89.68528931 113.42809143 88.86081299 112.6052063 88.01135254 111.75738525 C86.1941409 109.78067864 86.1941409 109.78067864 84 110 C84 109.34 84 108.68 84 108 C82.37154273 106.27284835 80.71501839 104.63764914 79 103 C77.83067276 101.83599999 76.66411658 100.66921119 75.5 99.5 C74.90832031 98.91089844 74.31664062 98.32179688 73.70703125 97.71484375 C72.63129208 96.63418129 71.56476039 95.54419789 70.51171875 94.44140625 C69.37648386 93.2592885 68.19248344 92.12434153 67 91 C66.34 91 65.68 91 65 91 C64.01 89.02 64.01 89.02 63 87 C59.99830758 86.65551048 59.99830758 86.65551048 58.41671658 88.50507355 Z " fill="#293B51" transform="translate(569,346)"/>
<path d="M0 0 C0.8265981 0.00205532 1.6531962 0.00411064 2.50484273 0.00622824 C3.37866736 0.0044752 4.25249199 0.00272216 5.15279615 0.000916 C8.11942989 -0.00378452 11.08601548 -0.00126816 14.05265138 0.00114992 C16.18573392 -0.00071604 18.31881612 -0.00301588 20.45189777 -0.0057154 C26.34389173 -0.01186686 32.23587158 -0.01169589 38.12786803 -0.01052102 C44.47101808 -0.01031785 50.81416349 -0.01582797 57.15731141 -0.02057859 C69.59867309 -0.02890507 82.04002906 -0.0316473 94.48139317 -0.03219097 C104.59425473 -0.03265 114.70711476 -0.03470564 124.81997582 -0.0378916 C127.72799972 -0.03878912 130.63602361 -0.03967893 133.5440475 -0.04056647 C134.26695427 -0.04078752 134.98986104 -0.04100857 135.73467408 -0.04123632 C156.08240786 -0.04739465 176.43014111 -0.05133649 196.77787587 -0.05089304 C197.92962962 -0.05086967 197.92962962 -0.05086967 199.10465113 -0.05084583 C202.99657383 -0.05076272 206.88849654 -0.05066368 210.78041924 -0.05056112 C211.55339822 -0.05054118 212.3263772 -0.05052123 213.12277978 -0.05050068 C214.68593635 -0.05046025 216.24909292 -0.05041845 217.81224949 -0.05037529 C242.1144506 -0.04976299 266.41663774 -0.05725912 290.71883485 -0.07094786 C318.01035941 -0.08631398 345.3018748 -0.09491367 372.59340397 -0.09398463 C375.50488576 -0.09391 378.41636756 -0.0938613 381.32784936 -0.09383032 C382.40319864 -0.09381284 382.40319864 -0.09381284 383.50027216 -0.093795 C395.03243251 -0.09376424 406.56458073 -0.10014787 418.09673748 -0.10876258 C429.69433747 -0.11724674 441.29191578 -0.11805183 452.88951761 -0.11165326 C459.17137877 -0.10838586 465.45319604 -0.10833925 471.73505303 -0.11700651 C477.48863278 -0.12486313 483.24213381 -0.12344854 488.99571162 -0.11472238 C491.07461668 -0.1131855 493.15352759 -0.11501063 495.23242576 -0.12058245 C514.40228755 -0.16854796 530.62678434 0.84136698 545.3098993 14.84970644 C556.0106219 27.076118 557.77231762 40.78089063 557.68221375 56.47861269 C557.68464757 57.98126519 557.68837258 59.48391605 557.69327638 60.98656252 C557.70260186 65.02946827 557.6933345 69.07212842 557.67994425 73.11501482 C557.66855394 77.35852851 557.67274265 81.60203145 557.67469117 85.84555605 C557.67557099 92.96009844 557.66455285 100.07454497 557.64608094 107.18906191 C557.62485291 115.41217894 557.62141909 123.63515633 557.6276429 131.85829523 C557.63333475 139.78513853 557.62769721 147.71193273 557.61646935 155.63876894 C557.61182763 159.00710501 557.61094757 162.37541101 557.6130552 165.74374941 C557.61493744 169.70340181 557.60683931 173.66291177 557.59099481 177.62253168 C557.58675091 179.07538239 557.58590212 180.52824754 557.58868501 181.98110178 C557.59190537 183.9627819 557.58160267 185.94447029 557.57059571 187.92612246 C557.56854284 189.03512407 557.56648997 190.14412569 557.56437489 191.28673342 C557.31074983 194.12534348 556.83895108 195.75674143 555.3098993 198.13486269 C552.61402127 200.23165672 551.2169553 200.1299709 547.7473993 199.94736269 C543.27708487 198.89074292 543.27708487 198.89074292 541.3098993 196.13486269 C540.93631169 193.38857725 540.93631169 193.38857725 540.93808839 189.99495485 C540.92795213 188.06677668 540.92795213 188.06677668 540.91761109 186.09964541 C540.92516494 184.67184869 540.93297068 183.24405328 540.94100282 181.81625918 C540.93853521 180.31481697 540.9346972 178.81337648 540.92958924 177.31194094 C540.92124253 174.07562005 540.92206643 170.83947506 540.92977425 167.60315302 C540.94135257 162.4795306 540.92919666 157.35613455 540.91315553 152.2325342 C540.87694534 139.5001009 540.87072548 126.76767238 540.87325379 114.03519228 C540.87496743 104.15165333 540.86775825 94.26829918 540.83327523 84.38481173 C540.81653012 79.29862148 540.8182348 74.21288246 540.83409795 69.12669435 C540.83992229 65.95000722 540.82910505 62.77353084 540.81385133 59.59688166 C540.81014545 58.13204081 540.81317384 56.66716369 540.82372186 55.20235613 C540.9016331 43.60227718 539.43869391 34.56156256 531.31380555 25.89267519 C524.48708751 19.90432603 517.7524102 17.98430285 508.8420696 18.00343493 C507.96305052 18.00138229 507.08403144 17.99932966 506.17837542 17.99721482 C503.20615574 17.99151959 500.23398203 17.99300517 497.26175782 17.9944208 C495.11997346 17.9918386 492.97818958 17.98882585 490.83640638 17.9854174 C484.92980855 17.97732696 479.02322286 17.97555669 473.11662015 17.97481993 C466.75449392 17.97297291 460.39237405 17.96542735 454.03025147 17.95868471 C439.38257471 17.94437681 424.73490043 17.93857289 410.08721789 17.93399277 C402.85063732 17.93165784 395.61405754 17.9280553 388.37747758 17.92429739 C363.61140594 17.91146082 338.84533474 17.90074182 314.07925984 17.89729479 C312.52416894 17.89707316 310.96907804 17.89685137 309.41398714 17.89662944 C307.85511342 17.8964088 306.29623971 17.89618831 304.73736599 17.89596799 C301.60993243 17.89552543 298.48249887 17.89507832 295.35506532 17.89462832 C294.19193011 17.89446423 294.19193011 17.89446423 293.00529723 17.89429683 C267.86031042 17.89066593 242.71535243 17.8747452 217.57037667 17.85143795 C190.99282717 17.82684782 164.41529415 17.81312233 137.83773294 17.81192687 C134.92073703 17.81175541 132.00374113 17.81153998 129.08674523 17.81129244 C128.36848587 17.81123667 127.6502265 17.8111809 126.9102017 17.81112344 C115.34573904 17.80997226 103.78130592 17.79894455 92.21685323 17.78440538 C80.5949155 17.77004651 68.97302443 17.76705266 57.35107929 17.77484536 C51.05347649 17.77875996 44.75597322 17.77778276 38.45838258 17.76378801 C32.69519152 17.75109773 26.93217529 17.75220371 21.16898464 17.76437873 C19.0821339 17.76634419 16.99527098 17.76321833 14.90843738 17.75453436 C12.07439005 17.7434861 9.24096455 17.75089913 6.40693471 17.76292589 C5.59454873 17.7553307 4.78216275 17.74773551 3.94515902 17.73991016 C-5.49359339 17.8265277 -13.00142863 21.49555351 -19.6901007 28.13486269 C-24.04089895 34.05122015 -26.8075543 39.29458897 -26.82432178 46.69087198 C-26.82877962 47.60531883 -26.83323746 48.51976568 -26.83783039 49.46192303 C-26.83764603 50.46287892 -26.83746167 51.46383481 -26.83727172 52.4951227 C-26.84094841 53.56137546 -26.8446251 54.62762822 -26.8484132 55.72619167 C-26.85945603 59.31115065 -26.86329491 62.89608065 -26.86710265 66.4810541 C-26.87336685 69.04666783 -26.88001361 71.61228065 -26.88701537 74.17789248 C-26.90624588 81.88564492 -26.91684412 89.59339227 -26.92574316 97.30116257 C-26.93012874 100.93299999 -26.93549486 104.56483596 -26.94073203 108.19667223 C-26.95774295 120.27342531 -26.97223636 132.35017749 -26.97948077 144.42694071 C-26.98139059 147.55988737 -26.98331094 150.69283403 -26.98526672 153.82578066 C-26.98575046 154.60443662 -26.9862342 155.38309258 -26.98673259 156.18534417 C-26.99503009 168.7945728 -27.02036284 181.40370648 -27.05284739 194.01289366 C-27.0859434 206.96527262 -27.10393184 219.91760337 -27.10712501 232.87002483 C-27.10928779 240.13957359 -27.11800225 247.4089839 -27.14358619 254.67849138 C-27.16760504 261.51899439 -27.17110291 268.35924472 -27.16082481 275.19978121 C-27.16032916 277.7079569 -27.16665801 280.21614481 -27.18038085 282.72428301 C-27.19809352 286.15405336 -27.19099561 289.58292949 -27.17784789 293.01270083 C-27.18881714 294.00027239 -27.19978638 294.98784395 -27.21108803 296.00534192 C-27.12796518 305.01512793 -24.61561065 312.91494359 -18.40494445 319.59970644 C-7.19868267 329.63173578 6.73176771 328.28378981 20.93746278 328.27962282 C22.38040018 328.28276414 23.82333668 328.28634067 25.26627204 328.29031023 C29.19918652 328.29992427 33.13208649 328.30354477 37.06501099 328.30615321 C41.31850201 328.3100725 45.57198051 328.31970783 49.82546327 328.32871035 C57.18516625 328.34359974 64.54486826 328.35516579 71.90458009 328.36465815 C82.54969101 328.37856709 93.1947785 328.39975822 103.83987251 328.42308668 C121.11893845 328.46094152 138.39800858 328.49592612 155.6770868 328.52768496 C156.70998548 328.52958545 157.74288416 328.53148594 158.8070828 328.53344402 C173.48749655 328.56031538 188.16791366 328.58418484 202.84833446 328.60682902 C204.40132078 328.60922498 204.40132078 328.60922498 205.98568055 328.61166933 C207.5367708 328.61405953 207.5367708 328.61405953 209.11919621 328.61649802 C226.34552204 328.64324149 243.57182246 328.67762378 260.79812095 328.71832308 C271.4213112 328.74311468 282.04447413 328.76143203 292.66768876 328.77147869 C299.93752605 328.77885564 307.20732656 328.79336043 314.4771395 328.81354292 C318.67408484 328.82495878 322.87097079 328.83306687 327.06793305 328.83253458 C330.90673033 328.83210823 334.74539376 328.84077274 338.58415666 328.85678438 C339.97550931 328.86095343 341.36687699 328.86172361 342.75823286 328.85882028 C344.6442883 328.85536665 346.53035423 328.86529227 348.41638276 328.87594298 C349.46550041 328.87767922 350.51461805 328.87941547 351.59552714 328.88120434 C354.3915925 329.14249693 355.98536796 329.5848919 358.3098993 331.13486269 C360.77313999 334.82972372 360.69981618 336.76779361 360.3098993 341.13486269 C358.47874723 343.75079422 357.40021564 344.10475725 354.3098993 345.13486269 C352.32479656 345.2298304 350.3366006 345.26401041 348.34922883 345.26629046 C347.09601696 345.2701316 345.8428051 345.27397275 344.55161712 345.27793029 C343.15313267 345.27714999 341.75464828 345.2762712 340.35616395 345.27530459 C338.87648548 345.2778875 337.39680771 345.28090045 335.91713092 345.28430799 C331.84057565 345.29239038 327.76403798 345.29416825 323.68747565 345.29490545 C319.2946341 345.29675393 314.90180172 345.30430037 310.50896546 345.31104067 C300.89714207 345.32463471 291.28532285 345.33065077 281.67349145 345.33505133 C275.67168302 345.33781272 269.6698762 345.34204996 263.66806886 345.3465555 C247.05168856 345.35875104 230.43530955 345.36904883 213.81892487 345.37243059 C212.75495737 345.37265016 211.69098987 345.37286972 210.59478092 345.37309594 C209.528254 345.37331422 208.46172707 345.3735325 207.36288115 345.37375739 C205.20166585 345.37420086 203.04045054 345.37464742 200.87923524 345.37509707 C199.80719584 345.3753185 198.73515644 345.37553993 197.630631 345.37576807 C180.26914347 345.37971401 162.90769796 345.39716053 145.54622665 345.42045659 C127.72239129 345.44417993 109.898577 345.45663294 92.0747256 345.45779851 C82.06704926 345.45871488 72.05942763 345.46445723 62.05176637 345.48261812 C53.52740748 345.49803257 45.0031202 345.50313174 36.47875002 345.49488002 C32.13109039 345.49097788 27.7835749 345.49188166 23.43593308 345.50593737 C19.45081574 345.51870287 15.46595045 345.51745564 11.48083332 345.50534666 C10.04399144 345.5033942 8.60713154 345.50644715 7.17031494 345.51519102 C-8.23302469 345.60294635 -20.08683226 342.56473862 -31.5026007 331.88486269 C-40.96696755 321.91973569 -44.15578623 309.28248864 -44.08450988 295.85893801 C-44.09364653 294.22040882 -44.09364653 294.22040882 -44.10296777 292.54877803 C-44.11953417 288.91110557 -44.11483089 285.27378561 -44.11002257 281.63608339 C-44.11736666 279.01858195 -44.12595388 276.40108375 -44.13568786 273.78359011 C-44.15667934 267.42447774 -44.16128628 261.06545667 -44.15949997 254.70631374 C-44.15818893 249.53266137 -44.16201389 244.35903731 -44.16942504 239.18539026 C-44.1715244 237.69132711 -44.173622 236.19726395 -44.17571786 234.70320079 C-44.17676139 233.9593957 -44.17780492 233.21559062 -44.17888007 232.44924598 C-44.19775781 218.40041822 -44.1967401 204.35164274 -44.18991074 190.30280756 C-44.18433965 177.47743953 -44.20514652 164.65227151 -44.23827121 151.8269502 C-44.27208527 138.63138921 -44.28716679 125.43592382 -44.28255418 112.24031875 C-44.28031694 104.84269459 -44.28544257 97.44525518 -44.31044677 90.04766825 C-44.33377746 83.08635136 -44.33078372 76.12545562 -44.31051925 69.16413096 C-44.30712003 66.61774157 -44.31215095 64.07132392 -44.32650283 61.52497271 C-44.41648348 44.3684755 -44.46613289 28.175409 -31.6901007 15.13486269 C-24.71301545 8.24034649 -18.183792 4.30460702 -8.7291632 1.74814394 C-2.95332952 0.01096791 -2.95332952 0.01096791 0 0 Z " fill="#3080FE" transform="translate(155.69010069966316,214.86513730883598)"/>
<path d="M0 0 C7.48276914 5.22960887 13.84165684 11.5783709 20.23828125 18.04296875 C21.29156517 19.09999432 22.34530005 20.1565707 23.39945984 21.21272278 C26.14938458 23.97021334 28.8932511 26.73365337 31.63580322 29.49847412 C34.42866884 32.31187627 37.22726456 35.11956578 40.02539062 37.92773438 C44.9405522 42.86193784 49.85074126 47.80104115 54.75727844 52.74382019 C56.83421453 54.83321968 58.91561224 56.91803705 61 59 C59.58537373 63.50108358 57.35790898 65.7530564 54 69 C53.20980469 69.80179687 52.41960937 70.60359375 51.60546875 71.4296875 C47.79992045 75.27827108 44.0083901 79.06501607 39.875 82.5625 C36.21693461 85.68848315 33.08613847 89.13953534 29.95703125 92.7890625 C27.73404541 95.30045967 25.38386548 97.6407467 23 100 C21.98417556 101.03629068 20.9699148 102.07411593 19.95703125 103.11328125 C18.90889967 104.17973223 17.86072214 105.24613804 16.8125 106.3125 C16.27947266 106.86228516 15.74644531 107.41207031 15.19726562 107.97851562 C13.83575044 109.35715678 12.42159498 110.68339727 11 112 C10.34 112 9.68 112 9 112 C8.7642627 112.56170898 8.52852539 113.12341797 8.28564453 113.70214844 C6.69599628 116.54335036 4.74656724 118.47807285 2.4296875 120.765625 C1.53378906 121.65507812 0.63789062 122.54453125 -0.28515625 123.4609375 C-1.22230469 124.38132812 -2.15945313 125.30171875 -3.125 126.25 C-4.07988637 127.19484856 -5.03431859 128.14015633 -5.98828125 129.0859375 C-8.32109087 131.39518338 -10.65844086 133.69963203 -13 136 C-16.3287521 134.89041597 -17.01489699 134.07455496 -19.1875 131.4375 C-23.63860739 126.19592111 -28.28347225 121.14795218 -33.6875 116.875 C-36.00625573 114.99492779 -37.71649326 112.92912072 -39.57958984 110.61083984 C-41.11967124 108.86428483 -42.76036389 107.41655707 -44.5390625 105.9140625 C-49.58814646 101.54546977 -54.32856628 96.89289456 -59.0625 92.1875 C-59.92166016 91.34896484 -60.78082031 90.51042969 -61.66601562 89.64648438 C-71.79403349 79.58036425 -78.69116732 70.28607477 -79.625 55.75 C-78.99068834 41.00197012 -69.18264166 31.14630033 -59.14892578 21.45605469 C-57.11721085 19.49247206 -55.11388414 17.50303873 -53.11328125 15.5078125 C-38.39495699 0.95752927 -20.9872915 -11.42418733 0 0 Z " fill="#FDFDFD" transform="translate(556,359)"/>
<path d="M0 0 C3.72201677 2.48134451 4.591885 5.26945311 5.51953125 9.54296875 C5.87434827 11.35743953 6.22533473 13.17266035 6.57421875 14.98828125 C9.22293985 27.77257096 14.84679268 37.86879564 23 48 C23.51949219 48.64710938 24.03898438 49.29421875 24.57421875 49.9609375 C34.15177977 60.62411627 48.855738 65.63192106 62.5625 68 C65.4929988 68.56227457 67.04237005 69.02622908 69.625 70.625 C71.56441907 73.97490567 72.00063502 77.23290347 71 81 C67.93576317 85.14308795 65.02774981 85.68203177 60.0625 86.4375 C42.9273684 89.43886325 28.66486613 97.51195002 18.09375 111.52734375 C13.70681215 118.00551256 11.12812675 124.50294433 9 132 C8.62875 133.19625 8.2575 134.3925 7.875 135.625 C6.99033925 138.83663549 6.99033925 138.83663549 6.578125 141.50390625 C5.42369489 148.34091906 5.42369489 148.34091906 3.3125 151.625 C-0.08337167 153.64416694 -2.12321849 153.68013711 -6 153 C-11.31729429 149.01202928 -11.73805169 144.21874295 -12.85009766 137.87915039 C-15.58940239 122.66470344 -24.31575768 108.03010916 -37 99 C-47.39635954 92.32168667 -57.23084009 87.91612214 -69.4765625 85.94140625 C-73.29296775 84.92172369 -75.26251576 83.82479612 -78 81 C-78.94327177 75.59762533 -78.94327177 75.59762533 -78 73 C-73.68357779 68.47140342 -70.19831603 67.27942784 -64 66.625 C-49.19410622 64.50941335 -35.83272602 56.70710248 -26.43359375 44.96484375 C-19.05376321 34.85025312 -14.37663085 25.73291623 -13.125 13.1875 C-12.20905652 5.2975307 -12.20905652 5.2975307 -9.25 2.0625 C-5.66389936 -0.21329464 -4.1422334 -0.90048552 0 0 Z " fill="#2A3C51" transform="translate(591,723)"/>
<path d="M0 0 C0.7734375 -0.00773437 1.546875 -0.01546875 2.34375 -0.0234375 C5.05544097 0.47763583 5.76689658 1.26076132 7.5 3.375 C8.17260742 5.42114258 8.17260742 5.42114258 8.60546875 7.76953125 C8.77965332 8.63586182 8.95383789 9.50219238 9.13330078 10.39477539 C9.31618652 11.31637451 9.49907227 12.23797363 9.6875 13.1875 C13.58609196 30.85158366 23.12795286 45.32216749 38.3125 55.3125 C48.04774927 61.37351651 58.62060447 64.49520672 69.85546875 66.50390625 C73.02877881 67.54917677 73.96996755 68.43021152 75.5 71.375 C75.90183756 74.55116811 75.49881427 77.33814275 74.5 80.375 C70.16440051 84.1084329 64.11722789 84.09311556 58.6171875 84.84765625 C54.76652991 85.49908329 51.99766732 86.6604572 48.5 88.375 C47.2625 88.74625 46.025 89.1175 44.75 89.5 C30.62875182 94.77156847 19.85798347 109.69548192 13.3515625 122.6640625 C10.72310306 128.57315553 9.56153122 134.56712994 8.6262207 140.93017578 C8.1815853 143.73469394 7.78388343 145.96320397 6.15625 148.32421875 C3.24224977 150.17295946 -0.2098589 150.01913511 -3.5 149.375 C-5.95133581 147.89068355 -7.26874092 147.00185879 -8.27368164 144.27783203 C-8.46498657 143.09229736 -8.46498657 143.09229736 -8.66015625 141.8828125 C-8.81419922 141.01269531 -8.96824219 140.14257812 -9.12695312 139.24609375 C-9.27068359 138.33988281 -9.41441406 137.43367187 -9.5625 136.5 C-10.85127454 128.51538982 -10.85127454 128.51538982 -14.5 121.375 C-14.96277344 120.24964844 -15.42554688 119.12429687 -15.90234375 117.96484375 C-20.38542764 107.89160635 -28.40971329 99.44410319 -37.5 93.375 C-38.4178125 92.74851562 -39.335625 92.12203125 -40.28125 91.4765625 C-48.04456212 86.73453937 -55.49966678 85.04446665 -64.42895508 83.70410156 C-65.736427 83.50252441 -65.736427 83.50252441 -67.0703125 83.296875 C-67.85164551 83.18956055 -68.63297852 83.08224609 -69.43798828 82.97167969 C-71.89652607 82.26025814 -72.92047901 81.36474613 -74.5 79.375 C-74.93359375 77.25390625 -74.93359375 77.25390625 -74.9375 74.9375 C-74.95683594 74.17566406 -74.97617187 73.41382813 -74.99609375 72.62890625 C-74.27631601 69.35873494 -73.21886443 68.34049487 -70.5 66.375 C-67.60725371 65.51031424 -64.66680722 65.08936505 -61.6875 64.625 C-44.07026825 61.34561643 -30.84067983 52.04934948 -20.0625 37.8125 C-18.84721667 36.01851033 -17.65739628 34.20686963 -16.5 32.375 C-16.01917969 31.63378906 -15.53835938 30.89257812 -15.04296875 30.12890625 C-11.40589168 23.78874472 -10.17201477 17.01289026 -8.93066406 9.88671875 C-8.7859668 9.09007813 -8.64126953 8.2934375 -8.4921875 7.47265625 C-8.31212158 6.39769897 -8.31212158 6.39769897 -8.12841797 5.30102539 C-6.73643394 1.034762 -4.27664287 -0.04276643 0 0 Z " fill="#3383FE" transform="translate(760.5,104.625)"/>
<path d="M0 0 C1.10597585 -0.00765109 2.21195171 -0.01530219 3.35144198 -0.02318513 C7.06486005 -0.04385605 10.77766026 -0.03585915 14.49111938 -0.02792358 C17.150437 -0.03661604 19.80970898 -0.04685243 22.4690094 -0.05889893 C28.94712942 -0.08440165 35.42508367 -0.08797924 41.90324543 -0.0832984 C47.16910364 -0.07973253 52.43491152 -0.08323027 57.7007637 -0.09174728 C58.82490028 -0.09353285 58.82490028 -0.09353285 59.97174669 -0.09535449 C61.49420591 -0.09777799 63.01666512 -0.10020626 64.53912432 -0.10263924 C78.81804166 -0.12439391 93.09686455 -0.12006369 107.37578721 -0.10786955 C120.43647622 -0.09753216 133.49686685 -0.1200386 146.55749683 -0.15806599 C159.96983438 -0.19681785 173.38203075 -0.21333561 186.79442465 -0.20581949 C194.32379767 -0.20199443 201.85291676 -0.20697992 209.38224411 -0.23524857 C215.79252862 -0.25907226 222.20240293 -0.26189134 228.61269306 -0.23766823 C231.88268437 -0.22588654 235.15177015 -0.22695214 238.42173958 -0.24767303 C241.96895096 -0.26853121 245.51414136 -0.25247287 249.0612793 -0.22705078 C250.60724905 -0.24917364 250.60724905 -0.24917364 252.18445051 -0.27174342 C258.17391704 -0.18133515 261.53913244 0.74432563 265.94323695 4.8873049 C267.15762329 6.52139282 267.15762329 6.52139282 267.90762329 10.08389282 C266.93324957 14.54977238 265.8355489 15.79717773 262.15762329 18.52139282 C258.5047411 19.2655506 254.90519733 19.19586789 251.18789673 19.15631104 C250.06825909 19.16411099 248.94862144 19.17191094 247.79505539 19.17994726 C244.03537041 19.19992459 240.27669116 19.18407897 236.51699829 19.16836548 C233.82487013 19.17513904 231.13281176 19.18385939 228.44070435 19.19491577 C221.88299365 19.21715559 215.32556899 19.21234384 208.76784706 19.19785257 C203.43856075 19.18656318 198.10935465 19.1850281 192.78005981 19.19047165 C191.64256794 19.1916209 191.64256794 19.1916209 190.48209643 19.19279336 C188.94159474 19.19439198 187.40109306 19.19601305 185.86059141 19.19765632 C171.41335962 19.21191599 156.96628642 19.19551773 142.51908064 19.16865449 C130.12117168 19.14631546 117.72349678 19.15019553 105.32559204 19.17324829 C90.93027008 19.20000251 76.53508715 19.21054267 62.1397438 19.19518697 C60.60489148 19.19359422 59.07003913 19.19202236 57.53518677 19.19047165 C56.77999905 19.18970027 56.02481134 19.18892889 55.24673915 19.18813414 C49.92350221 19.18381599 44.60035341 19.19110614 39.27713013 19.20286942 C32.79032148 19.21688881 26.30381536 19.21310662 19.8170414 19.1864657 C16.50690292 19.1733194 13.19737356 19.17087681 9.88722229 19.18471146 C6.30009088 19.19832407 2.71438951 19.18130014 -0.87265015 19.15631104 C-2.44486769 19.17304145 -2.44486769 19.17304145 -4.0488472 19.19010985 C-8.83597515 19.12518042 -11.09307192 19.08967738 -15.00015259 16.12648582 C-16.98655553 13.31750925 -17.44523174 12.30970555 -16.96737671 8.95889282 C-16.88745483 8.21510376 -16.80753296 7.4713147 -16.72518921 6.70498657 C-13.71673242 -0.73628487 -6.81512081 -0.04976592 0 0 Z " fill="#2B3D53" transform="translate(207.84237670898438,303.4786071777344)"/>
<path d="M0 0 C2.109375 0.5546875 2.109375 0.5546875 4 2 C4.78048993 4.50594086 5.33445701 6.81234708 5.8125 9.375 C8.48984819 21.60664467 14.32663209 31.65764065 24.6875 38.87109375 C30.7763089 42.68452745 36.32708699 44.95275322 43.40625 46.19921875 C46.59108281 47.18248792 47.97042962 48.3757183 50 51 C50.64722706 53.85767202 50.28422103 56.01567914 50 59 C48 62 48 62 44.4375 62.921875 C42.95901138 63.20152555 41.4797967 63.47735599 40 63.75 C26.84534198 66.54330081 18.41004933 73.98120966 10.65625 84.890625 C7.51627893 90.36178671 6.88671761 96.55204579 6.00390625 102.70703125 C5 106 5 106 2.6953125 107.98828125 C-0.28733249 109.10785379 -1.63480544 109.15242646 -4.6875 108.375 C-5.83798828 108.10816406 -5.83798828 108.10816406 -7.01171875 107.8359375 C-9 107 -9 107 -11 104 C-11.30418749 102.17487505 -11.54673093 100.33910108 -11.75 98.5 C-13.5358061 87.1989828 -19.46703084 79.34065192 -28 72 C-28.64195312 71.43410156 -29.28390625 70.86820312 -29.9453125 70.28515625 C-35.62642398 65.90735858 -42.00868369 64.35873981 -48.88061523 62.73535156 C-54.80232415 61.29651378 -54.80232415 61.29651378 -57 58 C-57.5576332 53.69825813 -57.50378727 51.72419419 -55 48.125 C-51.87855743 45.91397818 -50.09403938 45.62478639 -46.36328125 45.34375 C-34.23015988 43.57893235 -25.13200928 35.4747483 -18 26 C-13.78509304 19.32540229 -12.06947856 12.64883294 -10.7734375 4.90625 C-9.23987722 -0.85621893 -5.16658825 -0.3625676 0 0 Z " fill="#3283FE" transform="translate(830,266)"/>
<path d="M0 0 C1.30603471 -0.01064158 1.30603471 -0.01064158 2.63845396 -0.02149814 C5.54982648 -0.03907056 8.45986263 -0.02097721 11.37121582 -0.00291443 C13.46086739 -0.00805353 15.55051462 -0.01533473 17.64015198 -0.02459717 C23.31166937 -0.04312039 28.98271699 -0.03016647 34.65421486 -0.01050687 C40.58914364 0.00587315 46.52404251 -0.00293237 52.45898438 -0.00802612 C62.42573555 -0.01254779 72.3922991 0.00332742 82.35900879 0.03126526 C93.88232268 0.06331735 105.40529815 0.06330157 116.92863607 0.04605049 C128.01318194 0.03018745 139.09760373 0.03691758 150.18214417 0.0539875 C154.89973757 0.06086058 159.61723159 0.05982286 164.33482361 0.05244255 C169.89008293 0.04478222 175.44495705 0.05689803 181.00015068 0.08429146 C183.03912144 0.09117895 185.07812815 0.09126938 187.11709785 0.08407593 C189.90019128 0.07538853 192.68209402 0.09132533 195.46508789 0.11352539 C196.27229011 0.10528462 197.07949233 0.09704386 197.91115522 0.08855337 C203.0951878 0.16489416 206.17390126 1.11065194 210.23254395 4.62818909 C211.45834346 8.59401104 211.67613699 10.63010473 209.98254395 14.44068909 C208.23254395 16.62818909 208.23254395 16.62818909 205.23254395 18.62818909 C202.37097827 18.83077359 199.60579234 18.91509028 196.74319458 18.90907288 C195.42769578 18.91798624 195.42769578 18.91798624 194.08562124 18.92707968 C191.13537101 18.94447753 188.18528287 18.9474721 185.23498535 18.95045471 C183.12445223 18.9597093 181.01392246 18.96975837 178.90339661 18.98054504 C173.16168741 19.00681201 167.420025 19.0196863 161.67826509 19.02856636 C158.09332808 19.03442402 154.50840392 19.04263284 150.92347336 19.05157471 C139.7134881 19.07892793 128.50353213 19.09826032 117.2935158 19.10597849 C104.34081629 19.11494488 91.38853837 19.15006294 78.43596709 19.20797968 C68.43165612 19.25116525 58.42746399 19.27138441 48.42306077 19.27406073 C42.4440831 19.27616003 36.46550164 19.2880428 30.48662186 19.32369995 C24.86404072 19.35657965 19.24215537 19.36101318 13.61951256 19.34342194 C11.55429284 19.34187681 9.48903634 19.35062447 7.42391014 19.37033844 C4.60705801 19.39565464 1.79269343 19.38409837 -1.0241394 19.36317444 C-2.25405438 19.38734365 -2.25405438 19.38734365 -3.50881612 19.41200113 C-8.87696328 19.31854378 -8.87696328 19.31854378 -11.39220548 17.3686018 C-13.79104256 14.64796755 -14.76602714 12.63559347 -15.45495605 9.06568909 C-14.69832154 5.28251651 -13.62040777 4.0032325 -10.6170187 1.66232502 C-7.21493961 -0.23986102 -3.81680786 -0.05596454 0 0 Z " fill="#314358" transform="translate(205.7674560546875,381.37181091308594)"/>
<path d="M0 0 C1.10851927 -0.00657338 1.10851927 -0.00657338 2.23943287 -0.01327956 C4.71667715 -0.02663835 7.19388588 -0.03283973 9.67115784 -0.03897095 C11.44686544 -0.04687394 13.22257144 -0.05514301 14.99827576 -0.06375122 C20.82875542 -0.0899388 26.65924216 -0.10527116 32.48976135 -0.11953735 C34.49681668 -0.12489753 36.50387196 -0.13027504 38.5109272 -0.13566971 C46.85695874 -0.15728966 55.20298836 -0.17602824 63.54904079 -0.1872921 C75.51367765 -0.20354617 87.47799057 -0.23676941 99.4425053 -0.29369295 C107.85448416 -0.33235301 116.2663762 -0.35191986 124.67844158 -0.35721266 C129.70388044 -0.36087023 134.72897352 -0.3729354 139.75431633 -0.4053154 C144.47975183 -0.43532844 149.20463105 -0.44173215 153.93014145 -0.42993164 C155.66478992 -0.42971037 157.39946372 -0.43805975 159.13402367 -0.45558548 C161.50180627 -0.47820842 163.86755966 -0.47001645 166.23535156 -0.45410156 C166.92232052 -0.46798365 167.60928947 -0.48186574 168.31707567 -0.49616849 C172.07933611 -0.43382452 173.62281384 0.10757377 176.60746861 2.4770565 C178.6811676 5.15390015 178.6811676 5.15390015 179.3061676 8.59140015 C178.56330274 12.82572989 176.98722905 15.47153657 173.6811676 18.15390015 C170.87848336 18.76288944 168.92444024 18.96942394 166.12818909 18.915802 C165.37607116 18.92516195 164.62395323 18.93452189 163.84904385 18.94416547 C161.33272878 18.96806897 158.81859193 18.94915615 156.30226135 18.93026733 C154.49683868 18.93839886 152.69142596 18.94908269 150.8860321 18.96212769 C145.98507422 18.98948692 141.08487392 18.9788734 136.18390274 18.95985317 C131.0559357 18.94466614 125.92803367 18.95874945 120.80006409 18.96817017 C112.1883733 18.97908718 103.57699121 18.96469749 94.96534729 18.93612671 C85.00796616 18.90347275 75.05132212 18.91404968 65.09395885 18.94708514 C56.54601575 18.97430989 47.9982946 18.97815682 39.45032215 18.96245313 C34.34443898 18.95309713 29.23890231 18.95185668 24.13304138 18.97167206 C19.33271138 18.98900027 14.53333196 18.97699089 9.73310471 18.94230652 C7.97107904 18.93437045 6.20897342 18.93665611 4.44697952 18.94988251 C2.04162082 18.96627412 -0.36068972 18.94573375 -2.76585388 18.915802 C-3.8127934 18.9358785 -3.8127934 18.9358785 -4.88088322 18.95636058 C-7.60684511 18.89052138 -9.72007709 18.63816772 -11.87552071 16.89486551 C-14.34737463 14.09741362 -15.30548064 12.23994482 -15.8813324 8.52890015 C-15.23082035 4.62582784 -14.49352045 3.44673041 -11.3188324 1.15390015 C-7.63331561 -0.14221512 -3.85881347 0.00278693 0 0 Z " fill="#26384E" transform="translate(206.31883239746094,459.8460998535156)"/>
<path d="M0 0 C4.09104222 2.61372142 4.87245564 6.28709228 6.23828125 10.6953125 C8.58903177 17.80783971 12.4101202 22.35070862 19 26 C22.15878681 27.19384136 25.31175197 28.21411696 28.55859375 29.140625 C31 30 31 30 32 32 C32.35169303 35.03839714 32.39062339 37.96429823 32 41 C28.22573426 45.68008951 20.64790808 46.17347687 15 47 C15 47.66 15 48.32 15 49 C13.6078125 50.11375 13.6078125 50.11375 12.1875 51.25 C6.59050544 55.79591577 5.3809848 61.84813067 3.74609375 68.609375 C3 71 3 71 1 73 C-6.30434783 73.46376812 -6.30434783 73.46376812 -10 71 C-10.95703125 68.2421875 -10.95703125 68.2421875 -11.8125 64.875 C-14.18023684 56.81045272 -17.0870779 51.45024838 -24.4375 47.125 C-27.22541882 45.70518299 -29.83331671 44.70736821 -32.875 44 C-36 43 -36 43 -38 40.8125 C-39.32520706 37.08535515 -39.0534289 34.79234406 -38 31 C-35.25877492 28.45890861 -32.92114495 27.58536599 -29.3125 26.8125 C-22.20049841 24.81356464 -17.12433693 20.25731662 -13.125 14.125 C-11.81496972 10.48602699 -10.73520772 6.81273428 -9.74609375 3.07421875 C-8.17796749 -1.28533644 -3.99635587 -0.34451344 0 0 Z " fill="#3383FE" transform="translate(779,397)"/>
<path d="M0 0 C0.66 0 1.32 0 2 0 C2 0.99 2 1.98 2 3 C2.66 3 3.32 3 4 3 C4.25652344 3.53367188 4.51304687 4.06734375 4.77734375 4.6171875 C11.67223549 18.035529 22.75937684 27.20752902 36 34 C36 34.66 36 35.32 36 36 C35.19949219 36.4021875 35.19949219 36.4021875 34.3828125 36.8125 C19.92189335 44.41824295 9.12666501 55.29950669 2 70 C-2.03748342 68.65417219 -3.00815557 66.04800149 -5.0625 62.5625 C-12.44810597 50.5990391 -22.23022986 41.89374007 -35 36 C-35 35.34 -35 34.68 -35 34 C-33.26953125 32.87890625 -33.26953125 32.87890625 -30.8125 31.5625 C-18.41526811 24.31029494 -8.49942876 14.69706037 -1.3828125 2.1484375 C-0.92648437 1.43945312 -0.47015625 0.73046875 0 0 Z " fill="#FCFDFE" transform="translate(760,144)"/>
<path d="M0 0 C0.66 0 1.32 0 2 0 C3.04198001 1.71334323 4.0062566 3.4740346 4.9375 5.25 C12.53484813 18.64032608 23.44740232 27.90998362 37 35 C34.87503084 37.32954693 32.96438904 38.60352289 30.125 39.9375 C17.46712799 46.86428338 8.37425203 58.25149595 2 71 C1.34 71 0.68 71 0 71 C-1.10931444 69.22809504 -2.13622222 67.40438604 -3.125 65.5625 C-10.43064433 52.74373026 -20.85138508 43.6060674 -34 37 C-32.76796431 33.30389292 -31.90566889 33.15871881 -28.5625 31.375 C-15.67426204 23.93664552 -6.59649419 13.14466242 0 0 Z " fill="#FCFCFC" transform="translate(587,764)"/>
<path d="M0 0 C3.42242447 1.14080816 3.88074799 1.882589 5.875 4.75 C9.91506907 10.32250907 14.1986095 14.35726643 20 18 C18.5660468 21.50521893 16.90954253 23.00344591 13.8125 25.125 C9.24460264 28.50671756 6.42412461 32.27757066 3.41015625 37.05859375 C2.94480469 37.69925781 2.47945312 38.33992188 2 39 C1.34 39 0.68 39 0 39 C-0.97877464 37.58246431 -1.95095086 36.15974429 -2.8828125 34.7109375 C-6.98198661 28.43318135 -11.66189234 24.89400078 -18 21 C-17.4065713 17.60897885 -17.21850431 17.15891223 -14.25 15 C-13.1775 14.34 -12.105 13.68 -11 13 C-5.94629782 9.58875103 -3.16816619 5.09519511 0 0 Z " fill="#FAFBFE" transform="translate(826,301)"/>
<path d="M0 0 C4.2742558 1.5830577 6.26531794 4.50568404 9 8 C3.375 13 3.375 13 0 13 C-2.75 10.75 -2.75 10.75 -5 8 C-5.09328009 4.92175717 -4.0196554 4.02144226 -1.9375 1.75 C-1.298125 1.1725 -0.65875 0.595 0 0 Z " fill="#F7FAFE" transform="translate(774,426)"/>
<path d="M0 0 C0 4.95605367 -3.656162 7.58198129 -7 11 C-10.5855616 14.42303268 -14.283379 17.72023319 -18 21 C-18 18 -18 18 -16.34765625 16.00708008 C-15.21650391 14.89949341 -15.21650391 14.89949341 -14.0625 13.76953125 C-13.25039063 12.96708984 -12.43828125 12.16464844 -11.6015625 11.33789062 C-10.74304688 10.50451172 -9.88453125 9.67113281 -9 8.8125 C-7.71222656 7.5450293 -7.71222656 7.5450293 -6.3984375 6.25195312 C-4.2721635 4.16111702 -2.13921536 2.07758017 0 0 Z " fill="#222F3F" transform="translate(564,473)"/>
<path d="M0 0 C0 3 0 3 -2.625 5.91796875 C-3.74249406 7.01550756 -4.86785643 8.10507895 -6 9.1875 C-6.57234375 9.74630859 -7.1446875 10.30511719 -7.734375 10.88085938 C-9.14962788 12.26073093 -10.57397155 13.63126734 -12 15 C-12.66 14.67 -13.32 14.34 -14 14 C-9.67106815 8.81580806 -5.23435005 4.27293882 0 0 Z " fill="#5595FE" transform="translate(784,186)"/>
<path d="M0 0 C0 3 0 3 -2.375 5.6875 C-5 8 -5 8 -7 8 C-5.50902342 4.2047869 -3.24299151 2.38957269 0 0 Z " fill="#5294FE" transform="translate(841,324)"/>
<path d="M0 0 C0.99 0.33 1.98 0.66 3 1 C3 1.66 3 2.32 3 3 C4.32 3.66 5.64 4.32 7 5 C7 5.99 7 6.98 7 8 C5.2925002 6.71937515 3.62626404 5.38232443 2 4 C2 3.34 2 2.68 2 2 C1.34 2 0.68 2 0 2 C0 1.34 0 0.68 0 0 Z " fill="#484F5D" transform="translate(748,549)"/>
<path d="M0 0 C0.99 0.33 1.98 0.66 3 1 C1.50260417 2.23697917 0.00520833 3.47395833 -1.4921875 4.7109375 C-2.71051161 5.75250992 -3.86660097 6.86660097 -5 8 C-4.66275164 4.88045262 -4.3790035 3.3790035 -2.125 1.125 C-1.42375 0.75375 -0.7225 0.3825 0 0 Z " fill="#FFF1F1" transform="translate(51,39)"/>
</svg>
